<svg width="200" height="45" viewBox="0 0 200 45" fill="none" xmlns="http://www.w3.org/2000/svg">
<path d="M28.6876 8.7738e-05V34.9092H23.0626L6.6137 11.1308H6.32393V34.9092H6.65188e-05V8.7738e-05H5.65916L22.091 23.7955H22.3978V8.7738e-05H28.6876ZM46.8964 35.4205C44.2714 35.4205 42.0043 34.8751 40.0952 33.7842C38.1975 32.6819 36.7373 31.1251 35.7146 29.1137C34.6918 27.091 34.1805 24.7103 34.1805 21.9717C34.1805 19.2785 34.6918 16.9149 35.7146 14.8808C36.7486 12.8353 38.1918 11.2444 40.0441 10.108C41.8964 8.96032 44.0725 8.38645 46.5725 8.38645C48.1861 8.38645 49.7089 8.64782 51.1407 9.17054C52.5839 9.68191 53.8566 10.4774 54.9589 11.5569C56.0725 12.6365 56.9475 14.0115 57.5839 15.6819C58.2202 17.341 58.5384 19.3183 58.5384 21.6137V23.5058H37.0782V19.3467H52.6236C52.6123 18.1649 52.3566 17.1137 51.8566 16.1933C51.3566 15.2615 50.6577 14.5285 49.76 13.9944C48.8736 13.4603 47.8396 13.1933 46.6577 13.1933C45.3964 13.1933 44.2884 13.5001 43.3339 14.1137C42.3793 14.716 41.635 15.5115 41.1009 16.5001C40.5782 17.4774 40.3111 18.5512 40.2998 19.7217V23.3524C40.2998 24.8751 40.5782 26.1819 41.135 27.2728C41.6918 28.3524 42.4702 29.1819 43.4702 29.7615C44.4702 30.3296 45.6407 30.6137 46.9816 30.6137C47.8793 30.6137 48.6918 30.4887 49.4191 30.2387C50.1464 29.9774 50.7771 29.5967 51.3111 29.0967C51.8452 28.5967 52.2486 27.9774 52.5214 27.2387L58.2827 27.8865C57.9191 29.4092 57.2259 30.7387 56.2032 31.8751C55.1918 33.0001 53.8964 33.8751 52.3168 34.5001C50.7373 35.1137 48.9305 35.4205 46.8964 35.4205ZM63.7586 34.9092V8.72736H69.7415V13.091H70.0143C70.4915 11.5796 71.3097 10.4149 72.4688 9.59668C73.6393 8.76713 74.9745 8.35236 76.4745 8.35236C76.8154 8.35236 77.1961 8.36941 77.6165 8.4035C78.0484 8.42622 78.4063 8.466 78.6904 8.52281V14.199C78.429 14.108 78.0143 14.0285 77.4461 13.9603C76.8893 13.8808 76.3495 13.841 75.8268 13.841C74.7018 13.841 73.6904 14.0853 72.7927 14.574C71.9063 15.0512 71.2075 15.716 70.6961 16.5683C70.1847 17.4205 69.929 18.4035 69.929 19.5171V34.9092H63.7586ZM195.388 35.2842C194.354 35.2842 193.467 34.9205 192.729 34.1933C191.99 33.466 191.626 32.5796 191.638 31.5342C191.626 30.5115 191.99 29.6365 192.729 28.9092C193.467 28.1819 194.354 27.8183 195.388 27.8183C196.388 27.8183 197.257 28.1819 197.996 28.9092C198.746 29.6365 199.126 30.5115 199.138 31.5342C199.126 32.2274 198.945 32.858 198.592 33.4262C198.251 33.9944 197.797 34.449 197.229 34.7899C196.672 35.1194 196.058 35.2842 195.388 35.2842Z" fill="white"/>
<path d="M106.973 8.72736L97.6492 34.9092H90.831L81.5072 8.72736H88.0867L94.1038 28.1762H94.3765L100.411 8.72736H106.973ZM118.027 35.4376C116.368 35.4376 114.874 35.1421 113.544 34.5512C112.226 33.949 111.18 33.0626 110.408 31.8921C109.646 30.7217 109.266 29.2785 109.266 27.5626C109.266 26.0853 109.538 24.8637 110.084 23.8978C110.629 22.9319 111.374 22.1592 112.317 21.5796C113.26 21.0001 114.323 20.5626 115.504 20.2671C116.698 19.9603 117.93 19.7387 119.203 19.6024C120.737 19.4433 121.982 19.3012 122.936 19.1762C123.891 19.0399 124.584 18.8353 125.016 18.5626C125.459 18.2785 125.68 17.841 125.68 17.2501V17.1478C125.68 15.8637 125.3 14.8694 124.538 14.1649C123.777 13.4603 122.68 13.108 121.249 13.108C119.737 13.108 118.538 13.4376 117.652 14.0967C116.777 14.7558 116.186 15.5342 115.879 16.4319L110.118 15.6137C110.573 14.0228 111.323 12.6933 112.368 11.6251C113.413 10.5455 114.692 9.73872 116.203 9.20463C117.715 8.65918 119.385 8.38645 121.215 8.38645C122.476 8.38645 123.732 8.53418 124.982 8.82963C126.232 9.12509 127.374 9.61372 128.408 10.2955C129.442 10.966 130.271 11.8808 130.896 13.0399C131.533 14.199 131.851 15.6478 131.851 17.3865V34.9092H125.919V31.3126H125.715C125.34 32.0399 124.811 32.7217 124.129 33.358C123.459 33.983 122.612 34.4887 121.59 34.8751C120.578 35.2501 119.391 35.4376 118.027 35.4376ZM119.629 30.9035C120.868 30.9035 121.942 30.6592 122.851 30.1705C123.76 29.6705 124.459 29.0115 124.948 28.1933C125.448 27.3751 125.698 26.483 125.698 25.5171V22.4319C125.504 22.591 125.175 22.7387 124.709 22.8751C124.254 23.0115 123.743 23.1308 123.175 23.233C122.607 23.3353 122.044 23.4262 121.487 23.5058C120.93 23.5853 120.448 23.6535 120.038 23.7103C119.118 23.8353 118.294 24.0399 117.567 24.324C116.84 24.608 116.266 25.0058 115.845 25.5171C115.425 26.0171 115.215 26.6649 115.215 27.4603C115.215 28.5967 115.629 29.4546 116.459 30.0342C117.288 30.6137 118.345 30.9035 119.629 30.9035ZM140.953 44.7274C140.112 44.7274 139.334 44.6592 138.618 44.5228C137.913 44.3978 137.351 44.2501 136.93 44.0796L138.362 39.2728C139.26 39.5342 140.061 39.6592 140.766 39.6478C141.47 39.6365 142.09 39.4149 142.624 38.983C143.169 38.5626 143.629 37.858 144.004 36.8694L144.533 35.4546L135.038 8.72736H141.584L147.618 28.5001H147.891L153.942 8.72736H160.504L150.021 38.0796C149.533 39.466 148.885 40.6535 148.078 41.6421C147.271 42.6421 146.283 43.4035 145.112 43.9262C143.953 44.4603 142.567 44.7274 140.953 44.7274ZM171.558 35.4376C169.899 35.4376 168.405 35.1421 167.075 34.5512C165.757 33.949 164.712 33.0626 163.939 31.8921C163.178 30.7217 162.797 29.2785 162.797 27.5626C162.797 26.0853 163.07 24.8637 163.615 23.8978C164.161 22.9319 164.905 22.1592 165.848 21.5796C166.791 21.0001 167.854 20.5626 169.036 20.2671C170.229 19.9603 171.462 19.7387 172.734 19.6024C174.269 19.4433 175.513 19.3012 176.467 19.1762C177.422 19.0399 178.115 18.8353 178.547 18.5626C178.99 18.2785 179.212 17.841 179.212 17.2501V17.1478C179.212 15.8637 178.831 14.8694 178.07 14.1649C177.308 13.4603 176.212 13.108 174.78 13.108C173.269 13.108 172.07 13.4376 171.183 14.0967C170.308 14.7558 169.717 15.5342 169.411 16.4319L163.649 15.6137C164.104 14.0228 164.854 12.6933 165.899 11.6251C166.945 10.5455 168.223 9.73872 169.734 9.20463C171.246 8.65918 172.916 8.38645 174.746 8.38645C176.007 8.38645 177.263 8.53418 178.513 8.82963C179.763 9.12509 180.905 9.61372 181.939 10.2955C182.973 10.966 183.803 11.8808 184.428 13.0399C185.064 14.199 185.382 15.6478 185.382 17.3865V34.9092H179.45V31.3126H179.246C178.871 32.0399 178.342 32.7217 177.661 33.358C176.99 33.983 176.144 34.4887 175.121 34.8751C174.109 35.2501 172.922 35.4376 171.558 35.4376ZM173.161 30.9035C174.399 30.9035 175.473 30.6592 176.382 30.1705C177.291 29.6705 177.99 29.0115 178.479 28.1933C178.979 27.3751 179.229 26.483 179.229 25.5171V22.4319C179.036 22.591 178.706 22.7387 178.24 22.8751C177.786 23.0115 177.274 23.1308 176.706 23.233C176.138 23.3353 175.575 23.4262 175.019 23.5058C174.462 23.5853 173.979 23.6535 173.57 23.7103C172.649 23.8353 171.825 24.0399 171.098 24.324C170.371 24.608 169.797 25.0058 169.376 25.5171C168.956 26.0171 168.746 26.6649 168.746 27.4603C168.746 28.5967 169.161 29.4546 169.99 30.0342C170.82 30.6137 171.876 30.9035 173.161 30.9035Z" fill="#7828C8"/>
</svg>
